<svg width="121" height="121" viewBox="0 0 121 121" fill="none" xmlns="http://www.w3.org/2000/svg">
<g clip-path="url(#clip0_94_3873)">
<rect width="15.0886" height="15.0886" transform="translate(15.2363 15.2578)" fill="#FF6A6A"/>
<rect width="15.0886" height="15.0886" transform="translate(30.3242 15.2578)" fill="#FF6A6A"/>
<rect width="15.0886" height="15.0886" transform="translate(60.5059 15.2578)" fill="#FF6A6A"/>
<rect width="15.0886" height="15.0886" transform="translate(75.5918 15.2461)" fill="#FF6A6A"/>
<rect width="15.0886" height="15.0886" transform="translate(0.146484 30.3398)" fill="#FF6A6A"/>
<rect width="15.0886" height="15.0886" transform="translate(15.2344 30.3398)" fill="#FF6A6A"/>
<rect width="15.0886" height="15.0886" transform="translate(30.3223 30.3398)" fill="#FF6A6A"/>
<rect width="15.0886" height="15.0886" transform="translate(45.4121 30.3398)" fill="#FF6A6A"/>
<rect width="15.0886" height="15.0886" transform="translate(60.5039 30.3398)" fill="#FF6A6A"/>
<rect width="15.0886" height="15.0886" transform="translate(75.5918 30.3398)" fill="#FF6A6A"/>
<rect width="15.0886" height="15.0886" transform="translate(90.6758 30.3398)" fill="#FF6A6A"/>
<rect width="15.0886" height="15.0886" transform="translate(0.144531 45.4258)" fill="#FF6A6A"/>
<rect width="15.0886" height="15.0886" transform="translate(15.2344 45.4336)" fill="#FF6A6A"/>
<rect width="15.0886" height="15.0886" transform="translate(30.3223 45.4258)" fill="#FF6A6A"/>
<rect width="15.0886" height="15.0886" transform="translate(45.416 45.4336)" fill="#FF6A6A"/>
<rect width="15.0886" height="15.0886" transform="translate(60.5039 45.4336)" fill="#FF6A6A"/>
<rect width="15.0886" height="15.0886" transform="translate(75.5879 45.4336)" fill="#FF6A6A"/>
<rect width="15.0886" height="15.0886" transform="translate(90.6777 45.4336)" fill="#FF6A6A"/>
<rect width="15.0886" height="15.0886" transform="translate(0.146484 60.5156)" fill="#FF6A6A"/>
<rect width="15.0886" height="15.0886" transform="translate(15.2344 60.5156)" fill="#FF6A6A"/>
<rect width="15.0886" height="15.0886" transform="translate(30.3223 60.5195)" fill="#FF6A6A"/>
<rect width="15.0886" height="15.0886" transform="translate(45.416 60.5156)" fill="#FF6A6A"/>
<rect width="15.0886" height="15.0886" transform="translate(60.5 60.5195)" fill="#FF6A6A"/>
<rect width="15.0886" height="15.0886" transform="translate(75.5879 60.5195)" fill="#FF6A6A"/>
<rect width="15.0886" height="15.0886" transform="translate(90.6758 60.5195)" fill="#DA2E2E"/>
<rect width="15.0886" height="15.0886" transform="translate(15.2344 75.6094)" fill="#FF6A6A"/>
<rect width="15.0886" height="15.0886" transform="translate(30.3262 75.6016)" fill="#FF6A6A"/>
<rect width="15.0886" height="15.0886" transform="translate(45.4121 75.6094)" fill="#FF6A6A"/>
<rect width="15.0886" height="15.0886" transform="translate(60.498 75.6016)" fill="#FF6A6A"/>
<rect width="15.0886" height="15.0886" transform="translate(75.5879 75.6094)" fill="#DA2E2E"/>
<rect width="15.0886" height="15.0886" transform="translate(30.3223 90.6953)" fill="#FF6A6A"/>
<rect width="15.0886" height="15.0886" transform="translate(45.4102 90.6953)" fill="#FF6A6A"/>
<rect width="15.0886" height="15.0886" transform="translate(60.498 90.6953)" fill="#DA2E2E"/>
<rect width="15.0886" height="15.0886" transform="translate(45.4121 105.789)" fill="#DA2E2E"/>
</g>
<defs>
<clipPath id="clip0_94_3873">
<rect width="120.708" height="120.708" fill="white" transform="translate(0.146484 0.164062)"/>
</clipPath>
</defs>
</svg>
